<svg xmlns="http://www.w3.org/2000/svg" viewBox="0 0 64 64">
  <defs>
    <linearGradient id="a" x1="32" x2="32" y1="3" y2="61" gradientUnits="userSpaceOnUse">
      <stop offset="0" stop-color="#ff7047" />
      <stop offset="1" stop-color="#e63811" />
    </linearGradient>
    <linearGradient id="b" x1="32" x2="32" y1="61" y2="3" gradientUnits="userSpaceOnUse">
      <stop offset="0" stop-color="#000406" />
      <stop offset="1" stop-color="#001521" />
    </linearGradient>
  </defs>
  <circle cx="32" cy="32" r="29" fill="url(#a)" data-name="Layer 2" />
  <path fill="url(#b)"
    d="M32 3a29 29 0 1 0 29 29A29.033 29.033 0 0 0 32 3Zm26.965 27.616a63.35 63.35 0 0 0-27.329-5.966c.002-.038 0-.072.002-.11a18.297 18.297 0 0 1 3.2-9.984 23.865 23.865 0 0 1 8.667-6.976 27.044 27.044 0 0 1 15.46 23.036ZM41.15 6.599a24.198 24.198 0 0 0-7.943 6.815A20.225 20.225 0 0 0 29.64 24.44c-.004.093 0 .175-.005.267a56.588 56.588 0 0 0-9.178 1.232c-.095.02-.19.047-.285.068A44.673 44.673 0 0 1 28.05 5.292a26.932 26.932 0 0 1 13.1 1.307Zm-15.88-.75a46.629 46.629 0 0 0-7.154 20.656 57.43 57.43 0 0 0-5.492 1.756 12.193 12.193 0 0 0-4.846-8.176A27.114 27.114 0 0 1 25.27 5.85ZM7.897 44.144a26.787 26.787 0 0 1-2.815-10.143 57.09 57.09 0 0 1 5.872-2.92 20.903 20.903 0 0 1-3.057 13.063Zm-2.89-12.392a26.838 26.838 0 0 1 1.942-9.804 10.374 10.374 0 0 1 3.78 7.06 58.925 58.925 0 0 0-5.723 2.744Zm4.005 14.39a23.395 23.395 0 0 0 3.886-15.85q2.492-.956 5.058-1.664a46.545 46.545 0 0 0 8.647 29.829A27.076 27.076 0 0 1 9.012 46.141Zm20.397 12.731a44.638 44.638 0 0 1-9.42-30.765c.3-.071.597-.15.897-.215A54.611 54.611 0 0 1 29.6 26.71c.057 8.909 3.268 13.964 7.784 18.057a74.81 74.81 0 0 0 6.695 5.184c1.475 1.058 2.99 2.15 4.508 3.328A26.857 26.857 0 0 1 32 59a27.19 27.19 0 0 1-2.59-.127Zm20.746-6.905c-1.66-1.305-3.31-2.494-4.91-3.641a71.306 71.306 0 0 1-6.619-5.134c-4.172-3.82-6.985-8.424-7.028-16.54a61.599 61.599 0 0 1 27.38 6.18 26.936 26.936 0 0 1-8.823 19.135Z"
    data-name="Layer 3" />
</svg>